<?xml version="1.0" encoding="utf-8"?>
<!-- Generator: Adobe Illustrator 27.5.0, SVG Export Plug-In . SVG Version: 6.00 Build 0)  -->
<svg version="1.1" xmlns="http://www.w3.org/2000/svg" xmlns:xlink="http://www.w3.org/1999/xlink" x="0px" y="0px"
	 viewBox="0 0 750 500" style="enable-background:new 0 0 750 500;" xml:space="preserve">
<g id="BACKGROUND">
	<rect style="fill:#FFFFFF;" width="750" height="500"/>
</g>
<g id="OBJECTS">
	<g>
		<g>
			<path style="fill:#F5F8FA;" d="M333.255,109.139c-20.985,2.283-42.53,6.105-60.163,17.709
				c-13.503,8.886-23.815,21.755-33.68,34.56c-23.359,30.318-46.046,62.02-76.784,84.822
				c-14.981,11.113-32.701,21.181-39.225,38.655c-7.541,20.201,3.824,43.864,21.724,55.888
				c17.899,12.024,40.599,14.481,62.135,13.407c21.536-1.074,42.886-5.307,64.449-5.219c6.458,0.026,13.16,0.509,18.823,3.613
				c11.431,6.265,15.007,20.717,22.798,31.167c6.036,8.096,14.704,13.811,23.555,18.673c26.499,14.558,59.097,22.81,86.899,10.928
				c34.881-14.906,52.288-56.675,87.02-71.925c11.019-4.838,23.117-6.658,34.445-10.723c23.885-8.57,44.252-28.31,50.464-52.914
				c6.212-24.604-3.607-53.271-25.303-66.433c-14.896-9.037-33.038-10.274-50.326-12.436c-21.811-2.727-43.671-7.384-63.303-17.274
				c-23.73-11.954-34.749-30.414-50.745-49.989C387.625,109.118,360.493,106.176,333.255,109.139z"/>
			<path style="fill:#F5F8FA;" d="M273.212,373.04c3.907,0.932,8.237,2.825,9.302,6.698c1.174,4.269-2.284,8.37-5.798,11.063
				c-8.689,6.659-49.407,21.374-48.424-1.638C229.06,371.178,261.754,370.306,273.212,373.04z"/>
			<path style="fill:#F5F8FA;" d="M482.627,169.547c3.196,0.332,6.923,0.06,8.858-2.506c1.099-1.457,1.372-3.388,1.256-5.209
				c-0.331-5.201-3.44-9.77-6.61-13.907c-5.59-7.293-11.969-14.366-20.301-18.241c-11.453-5.327-34.206-0.45-23.313,15.701
				C450.774,157.63,468.065,168.033,482.627,169.547z"/>
		</g>
		<g>
			<g>
				<path style="fill:#4A4760;" d="M386.297,102.991c-0.597-0.962-0.916-2.071-0.823-3.2l0.517-6.265
					c0.177-2.142,0.281-4.528-1.091-6.182c-1.242-1.497-3.324-1.935-4.977-2.961c-3.632-2.254-4.814-7.045-7.984-9.912
					c-2.918-2.639-7.487-3.264-11.007-1.505c-1.252,0.626-2.377,1.521-3.705,1.963c-2.037,0.677-4.259,0.204-6.399,0.362
					c-6.243,0.46-10.938,6.331-12.399,12.419c-1.096,4.564-0.869,9.498-2.919,13.72c-3.246,6.686-11.552,10.227-13.631,17.362
					c-1.513,5.192,0.709,11.165-1.73,15.992c-2.179,4.314-7.684,6.767-8.431,11.542c-0.914,5.849-4.042,10.596-3.676,16.505
					c0.201,3.246,1.061,6.759,3.666,8.706c1.175,0.878,2.598,1.35,4.004,1.77c1.97,0.588,3.959,1.107,5.968,1.549
					c2.59,0.569,5.322,1.107,7.923,0.505c3.127-0.723,5.636-2.975,8.434-4.548c6.487-3.646,14.324-3.553,21.632-4.951
					c2.477-0.474,37.27-27.914,33.736-22.539c0.096-3.317-2.788-6.63-3.262-9.915c-0.37-2.568,0.738-5.216,0.166-7.746
					c-0.498-2.206-2.198-3.963-2.875-6.121c-1.073-3.417,0.578-7.061,0.582-10.643C388.019,106.791,387.397,104.762,386.297,102.991
					z"/>
				<g>
					<path style="fill:#FEB17D;" d="M367.307,422.388c0,0,0.738,8.039-0.061,9.885c-0.799,1.847-2.221,5.782-1.623,7.386
						c1.263,5.176,13.967,3.995,17.24,7.057c3.274,3.062,17.689,5.87,18.646,5.241c0.957-0.629,2.828-2.492,1.559-3.537
						c-1.269-1.045-5.624-4.147-13.077-8.438c-7.452-4.291-11.201-7.853-11.204-8.615c-0.004-0.762,0.396-9.948,0.396-9.948
						L367.307,422.388z"/>
					<path style="fill:#4A4760;" d="M383.934,444.315c-3.662-2.585-16.085,0.323-18.044-4.631c-0.211-0.391-0.305-0.96-0.324-1.616
						l-0.002,0c0,0-0.585,2.585,1.353,5.17c1.939,2.585,2.154,5.062,2.154,6.462c0,1.4,0,4.846,0,4.846h2.154v-5.169
						c0,0,0.382-2.95,3.339-2.585c11.04,1.364,20.319,7.754,20.319,7.754h4.811c0.809,0,3.722-3.23,4.013-3.984
						c0,0,1.371-1.67-1.676-2.94c-3.047-1.271-4.521,1.782-5.994,1.677c-1.474-0.105-11.442-4.632-11.442-4.632"/>
					<path style="fill:#4A4760;" d="M391.307,440.11l-1.977-0.822c0,0-3.662,3.011-3.933,8.589l2.255,0.556
						C387.377,444.92,391.307,440.11,391.307,440.11z"/>
					<path style="fill:#4A4760;" d="M380.616,432.802l-0.912-0.641c0,0-5.373,4.006-6.76,11.426l1.584,0.388
						C374.773,437.723,380.616,432.802,380.616,432.802z"/>
				</g>
				<g>
					<path style="fill:#FEB17D;" d="M342.115,434.093c0,0-0.442,6.363-1.237,8.837c0,0-2.474,5.568-2.651,6.628
						c-0.177,1.06,0.353,3.712,1.237,4.861h18.824c0,0,1.679-2.121,0.53-4.065c-1.149-1.944-3.712-5.921-4.065-9.721
						c-0.354-3.8,0-11.283,0-11.283h-12.196L342.115,434.093z"/>
					<path style="fill:#4A4760;" d="M339.464,454.419h18.824c0,0,1.679-2.121,0.53-4.065c-0.184-0.311-0.411-0.69-0.653-1.096
						c-3.491,0.687-10.373,1.434-13.752,1.096c-3.248-0.325-5.071-1.409-5.815-1.963c-0.194,0.523-0.334,0.947-0.371,1.168
						C338.05,450.619,338.58,453.27,339.464,454.419z"/>
					<path style="fill:#4A4760;" d="M339.954,445.055c2.166-0.465,8.802-1.624,15.888-0.32c-0.185-0.453-0.353-0.915-0.503-1.384
						c-3.592-0.68-9.525-1.294-14.848,0.46C340.34,444.158,340.153,444.59,339.954,445.055z"/>
					<path style="fill:#4A4760;" d="M341.524,439.733c2.324-0.457,8.615-1.478,13.146-0.22c-0.016-0.277-0.029-0.554-0.04-0.832
						c-5.13-1.248-10.698-0.46-12.962-0.034C341.624,439.009,341.576,439.373,341.524,439.733"/>
				</g>
				<g>
					<path style="fill:#717E98;" d="M386.726,233.888h-51.641c0,0-2.927,26.748-0.927,50.904
						c1.999,24.156,3.045,35.943,2.585,45.578c-0.46,9.635-3.284,41.506,4.88,100.104c0,0,5.84,4.413,14.427,0.313
						c0,0,2.024-38.081,0.279-74.824c-1.745-36.743,1.265-41.46,2.142-51.354c0.877-9.894,1.525-37.227,2.288-43.908h0.296
						c0.763,6.681,1.411,34.014,2.288,43.908c0.877,9.894,3.887,14.611,2.142,51.354c-1.745,36.743,0.279,74.824,0.279,74.824
						c8.587,4.101,14.427-0.313,14.427-0.313c5.156-60.651,5.34-90.469,4.88-100.104c-0.46-9.635,0.586-21.422,2.585-45.578
						C389.652,260.635,386.726,233.888,386.726,233.888z"/>
					<path style="fill:#637291;" d="M335.3,233.888c0,0-0.455,4.228-0.913,10.772c10.33-3.029,16.518-0.176,27.301-1.091
						c4.938-0.419,14.174-1.741,19.573-5.074c1.588-0.98,3.812-0.166,5.703-0.374c-0.989-1.74-1.94-2.891-2.833-3.299
						C372.785,229.643,335.3,233.888,335.3,233.888z"/>
					<g>
						
							<rect x="343.76" y="320.12" transform="matrix(0.998 -0.0634 0.0634 0.998 -19.6072 22.5561)" style="fill:#3C333A;" width="3.822" height="0.319"/>
						<path style="fill:#3C333A;" d="M349.384,391.551l0.008-0.318c-4.239-0.1-8.447-0.658-12.559-1.658
							c0.009,0.111,0.02,0.225,0.03,0.336C340.962,390.899,345.158,391.451,349.384,391.551z"/>
						<path style="fill:#3C333A;" d="M350.198,319.992l-0.008,0.318c0.15,0.004,0.301,0.005,0.451,0.005
							c3.141,0,6.272-0.786,9.06-2.232c0.016-0.128,0.032-0.26,0.048-0.385c-2.791,1.488-5.944,2.298-9.107,2.298
							C350.493,319.997,350.345,319.996,350.198,319.992z"/>
					</g>
				</g>
				<g>
					<path style="fill:#F85F61;" d="M386.964,235.666l-13.935,1.417c-8.129,1.148-16.38,1.137-24.506-0.031l-14.135-0.59
						l2.633-29.624h47.941L386.964,235.666z"/>
					<path style="fill:#F8D8D1;" d="M359.564,235.519c-9.213,0-17.363-0.963-23.679-2.069l0.179-0.501
						c11.685,2.046,29.681,3.597,49.06-0.611l0.22,0.493C376.285,234.799,367.527,235.519,359.564,235.519z"/>
					<path style="fill:#F8D8D1;" d="M359.564,232.162c-9.213,0-17.363-0.963-23.679-2.069l0.179-0.501
						c11.685,2.046,29.681,3.597,49.06-0.611l0.22,0.492C376.285,231.442,367.527,232.162,359.564,232.162z"/>
				</g>
				<g>
					<path style="fill:#F85F61;" d="M344.433,127.58l-1.957,0.553c0,0-6.079,12.707-4.807,16.658s12.121,38.373,19.622,39.578
						c7.5,1.205,12.188-2.411,12.188-3.081c0-0.67,12.188-24.51,12.188-24.51l-0.402-20.358l-2.195-8.287l-1.957-0.553H344.433z"/>
					<path style="fill:#F8D8D1;" d="M361.688,144.625c16.125-0.669,16.821-9.679,17.665-15.429l-0.282-1.063l-1.957-0.553h-32.681
						l-1.957,0.553c0,0-0.01,0.13-0.026,0.361C342.807,134.153,344.09,145.356,361.688,144.625z"/>
					<g>
						<path style="fill:#F8D8D1;" d="M361.326,147.619c-3.244,0-6.187-0.373-8.686-0.879c-7.85-1.59-13.125-4.795-13.177-4.827
							l0.167-0.271c0.052,0.032,5.288,3.212,13.086,4.789c7.189,1.454,18.092,1.802,29.204-4.79l0.163,0.273
							C374.742,146.269,367.491,147.619,361.326,147.619z"/>
						<path style="fill:#F8D8D1;" d="M360.411,154.715c-10.999,0-19.177-4.599-19.299-4.669l0.159-0.276
							c0.183,0.105,18.432,10.36,37.083-0.001l0.154,0.278C372.208,153.548,365.951,154.715,360.411,154.715z"/>
						<path style="fill:#F8D8D1;" d="M360.35,161.88c-5.322,0-10.062-1.098-13.759-2.365l0.103-0.301
							c6.911,2.368,17.497,4.144,28.682-0.842l0.129,0.291C370.214,161.021,365.055,161.88,360.35,161.88z"/>
						<path style="fill:#F8D8D1;" d="M360.357,169.491c-3.96,0-7.463-0.593-10.178-1.274l0.077-0.308
							c5.022,1.259,12.758,2.214,21.087-0.376l0.094,0.303C367.544,169.048,363.78,169.491,360.357,169.491z"/>
					</g>
					<g>
						<path style="fill:#5C616E;" d="M359.559,144.781c-1.22-0.035-2.486-0.13-3.763-0.283l0.037-0.316
							c1.267,0.152,2.524,0.246,3.734,0.28L359.559,144.781z"/>
						<path style="fill:#5C616E;" d="M362.725,144.74l-0.019-0.318c4.947-0.281,8.306-1.784,10.252-2.994
							c2.108-1.312,3.059-2.572,3.069-2.585l0.255,0.19C376.244,139.084,372.348,144.191,362.725,144.74z"/>
						<path style="fill:#5C616E;" d="M361.07,160.107c-0.697,0-1.438-0.022-2.223-0.066l0.017-0.318
							c2.404,0.135,4.388,0.061,5.902-0.217l0.057,0.313C363.783,160.011,362.526,160.107,361.07,160.107z"/>
						<path style="fill:#5C616E;" d="M355.802,159.781c-1.702-0.191-2.903-0.399-2.915-0.401l0.055-0.313
							c0.012,0.002,1.204,0.208,2.896,0.399L355.802,159.781z"/>
					</g>
				</g>
				<path style="fill:#FEB17D;" d="M323.363,239.887c1.367,3.946-0.164,10.897-0.713,14.957c-0.658,4.865,0.272,8.693,2.683,13.224
					c0.314,0.591,0.745,1.238,1.546,1.418c0.801,0.179,2.114-0.695,1.567-1.177c0.101,0.493,0.283,1.068,0.887,1.257
					c0.628,0.197,1.359-0.186,1.602-0.67s0.138-1.024,0.037-1.537c-0.97-4.913-1.072-8.717-0.663-13.675
					c0.101,0.712,0.217,1.458,0.75,2.047c0.533,0.589,1.627,0.949,2.439,0.591c0.915-0.404,0.307-1.234,0.207-2.038
					c-0.367-2.96-0.391-6.051-1.352-8.932c0,0-1.474-4-1.271-6.86c0.202-2.86-7.59-1.005-7.59-1.005L323.363,239.887z"/>
				<path style="fill:#8C9CBD;" d="M333.458,234.365c5.649,0.2,20.808-0.249,27.315-4.793c0,0,9.777,5.09,27.941,4.286
					c-1.414,0.063-2.711-22.489-2.433-23.175c0.231-0.57,1.471-2.291,1.432-2.904c-0.049-0.77-1.045-1.232-1.068-2.004
					c-0.012-0.395,0.241-0.741,0.381-1.11c0.285-0.754,0.092-1.592-0.044-2.386c-0.328-1.907-0.312-3.856-0.222-5.788
					c0.494-10.521,4.387-20.443,4.636-31.075c0.015-0.648,0.043-10.017-0.473-10.124c0.2,0.042,1.097,1.273,2.734,3.776
					c0.824,1.26,1.379,1.713,2.326,3.198c0.552,0.866,1.821,1.297,2.371,2.168c2.948,4.661,5.647,8.016,5.647,8.016
					c-3.23,6.099-6.536,14.742-9.119,22.145c-0.344,0.986-1.228,1.6-1.544,2.533c-0.427,1.259-0.275,2.813-0.644,3.937
					c-1.632,4.974-2.648,8.413-2.648,8.413c3.214,3.884,6.554,10.012,6.554,10.012c4.76-5.313,9.82-14.108,13.901-23.11
					c0.392-0.864,1.65-2.205,2.023-3.069c0.742-1.721,0.567-2.963,1.219-4.654c3.869-10.028,6.012-19.115,4.569-22.501
					c-2.612-6.133-26.921-33.618-28.395-34.556c-1.473-0.938-10.849-3.465-10.849-3.465s0.67,17.814-16.34,44.601l-1.957,2.889
					l-1.957-2.889c-17.01-26.787-16.34-44.601-16.34-44.601s-6.831,2.527-8.304,3.465c0,0-8.325,4.056-10.758,12.743
					c-0.449,1.601-0.987,4.053-1.551,7.144c-0.539,2.955-1.824,4.703-2.356,8.641c-0.283,2.094,0.165,6.093-0.092,8.386
					c-1.495,13.355-2.407,29.608-1.091,43.287c0.602,6.261,1.128,11.154,1.577,14.973c0.195,1.658-0.26,3.03-0.093,4.307
					c0.122,0.932,0.871,1.852,0.978,2.603c0.757,5.339,1.132,6.338,1.132,6.338l9.524-0.871c0.1-4.214,0.128-11,0.123-17.961
					c-0.001-1.091,0.401-2.781,0.399-3.871c-0.005-2.185-0.415-3.756-0.424-5.826c-0.036-8.618-0.098-15.604-0.098-15.604
					c-0.068-0.588,0.371-2.23,0.27-4.034c-0.055-1.002-0.643-1.885-0.702-3.067c-0.294-5.914-0.595-13.219-0.595-13.219
					s-0.167,3.234,3.972,14.829C337.323,198.62,333.458,234.365,333.458,234.365z"/>
				<g>
					<path style="fill:#C3CDE0;" d="M353.931,214.763c-4.605,2.173-10.378,2.516-15.468,2.641v1.569
						c5.393,0.256,10.812-0.604,15.85-2.546C354.19,215.894,353.979,215.336,353.931,214.763z"/>
					<path style="fill:#C3CDE0;" d="M368.637,214.763c4.605,2.173,10.378,2.516,15.468,2.641v1.569
						c-5.393,0.256-10.812-0.604-15.85-2.546C368.377,215.894,368.589,215.336,368.637,214.763z"/>
				</g>
				<g>
					<path style="fill:#C3CDE0;" d="M346.71,161.733l-2.545,1.018c5.624,10.581,16.608,12.871,16.608,12.871l-1.957-2.889
						c-17.01-26.787-16.34-44.601-16.34-44.601c-2.225,2.026-5.945,11.233-5.945,11.233
						C339.746,151.018,346.71,161.733,346.71,161.733z"/>
					<path style="fill:#C3CDE0;" d="M374.837,161.733l2.545,1.018c-5.624,10.581-16.608,12.871-16.608,12.871l1.957-2.889
						c17.01-26.787,16.34-44.601,16.34-44.601c2.225,2.026,5.945,11.233,5.945,11.233
						C381.802,151.018,374.837,161.733,374.837,161.733z"/>
				</g>
				<g>
					<path style="fill:#FEB17D;" d="M364.994,219.391c0.745-0.696,5.134-0.826,5.134-0.826c-2.195-0.254-1.791-1.911-0.985-2.314
						c0.568-0.284,6.539-0.612,10.6-0.552c4.061,0.06,6.537-2.509,6.537-2.509l0.002-2.507c2.179,0.478,4.23-0.63,4.23-0.63
						s3.344,4.263,5.129,8.024c0,0-6.462,2.697-7.716,3.891c-1.582,1.507-3.16,3.419-5.203,4.286
						c-2.182,0.927-4.539,1.438-6.908,1.499c-0.809,0.021-1.628-0.011-2.408-0.224c-0.266-0.073-0.536-0.172-0.73-0.368
						c-0.194-0.197-0.289-0.513-0.158-0.757c0.125-0.232,0.404-0.329,0.662-0.387c1.3-0.29,2.716-0.102,3.922-0.669
						c0.248-0.117,0.504-0.294,0.555-0.563c0.136-0.715-1.747-0.333-2.15-0.32c-0.916,0.031-1.833,0.057-2.749,0.04
						c-2.269-0.041-4.688-0.149-5.405-0.508c-0.717-0.358-0.478-1.433,0.09-1.672c0.43-0.181,2.986-0.537,2.986-0.537
						s-4.24-0.179-5.016-0.478C364.634,221.013,364.461,219.889,364.994,219.391z"/>
					<g>
						<path style="fill:#CA757D;" d="M382.56,220.886l-0.052-0.313c-4.604,0.784-10.98,1.049-13.7,1.129
							c0.898,0.057,1.618,0.087,1.618,0.087s-0.74,0.104-1.491,0.227C371.731,221.932,378.009,221.662,382.56,220.886z"/>
						<path style="fill:#CA757D;" d="M376.842,218.51c-3.13,0.096-6.189-0.107-7.663-0.229c0.243,0.129,0.538,0.236,0.949,0.284
							c0,0-0.355,0.011-0.874,0.042c1.238,0.1,3.459,0.247,5.904,0.247c0.556,0,1.125-0.007,1.694-0.025
							c4.373-0.134,6.599-1.18,6.691-1.225l-0.137-0.287C383.384,217.327,381.139,218.379,376.842,218.51z"/>
					</g>
				</g>
				<g>
					<path style="fill:#6C7281;" d="M408.906,169.231l-0.112-0.298c-1.87,0.7-3.568,1.896-4.913,3.384
						c0.074,0.08,0.122,0.132,0.122,0.132c-0.09,0.17-0.182,0.348-0.274,0.521C405.088,171.309,406.899,169.981,408.906,169.231z"/>
					<path style="fill:#6C7281;" d="M399.683,201.967l-0.027-0.317c-1.182,0.107-2.382-0.155-3.539-0.408
						c-1.206-0.264-2.349-0.574-3.213-1.206c-0.016,0.125-0.044,0.239-0.065,0.359c0.892,0.603,2.027,0.897,3.211,1.157
						c0.99,0.217,2.008,0.44,3.044,0.44C399.29,201.992,399.487,201.984,399.683,201.967z"/>
					
						<rect x="401.151" y="201.473" transform="matrix(0.9775 -0.2111 0.2111 0.9775 -33.5022 89.4315)" style="fill:#6C7281;" width="1.95" height="0.318"/>
					<path style="fill:#6C7281;" d="M331.685,213.705c-2.3,0.697-4.65,1.307-6.997,1.805l0.066,0.311
						c2.335-0.495,4.674-1.103,6.964-1.795C331.706,213.92,331.696,213.812,331.685,213.705z"/>
					
						<rect x="320.51" y="217.531" transform="matrix(0.821 -0.5709 0.5709 0.821 -66.7195 222.5741)" style="fill:#6C7281;" width="2.173" height="0.318"/>
					<path style="fill:#6C7281;" d="M390.924,155.291c0.038,0.008,0.126,0.072,0.247,0.174c-0.063-2.837-0.188-8.681-0.427-11.487
						l-0.318,0.027c0.237,2.764,0.361,8.564,0.425,11.358C390.873,155.317,390.897,155.285,390.924,155.291z"/>
					<path style="fill:#6C7281;" d="M344.09,195.352c0.967,0.182,1.966,0.37,2.938,0.598c1.115,0.262,2.242,0.619,2.933,1.46
						l0.193-0.159c-0.739-0.898-1.912-1.273-3.069-1.544c-0.977-0.23-1.979-0.418-2.949-0.601c-1.629-0.307-3.313-0.624-4.912-1.142
						c-1.39-0.451-3.094-1.212-4.518-2.428c0.031,0.133,0.061,0.271,0.09,0.412c1.399,1.117,3.019,1.822,4.351,2.254
						C340.76,194.726,342.453,195.044,344.09,195.352z"/>
					<path style="fill:#6C7281;" d="M354.998,201.012c-1.358-0.66-2.571-1.553-3.605-2.653l0.183-0.171
						c1.013,1.078,2.201,1.952,3.532,2.599L354.998,201.012z"/>
					<path style="fill:#6C7281;" d="M387.772,188.032c-2.314,1.813-5.15,2.984-8.071,3.3l0.027,0.249
						c2.866-0.311,5.655-1.43,7.961-3.165C387.717,188.288,387.743,188.157,387.772,188.032z"/>
					<path style="fill:#6C7281;" d="M369.971,208.995l0.21,0.239c2.291-2.018,5.037-3.582,7.941-4.521l-0.097-0.303
						C375.079,205.363,372.295,206.949,369.971,208.995z"/>
					<path style="fill:#6C7281;" d="M371.462,187.432c0.837-0.129,1.677-0.297,2.498-0.502l-0.077-0.308
						c-0.811,0.202-1.642,0.369-2.47,0.496L371.462,187.432z"/>
					<path style="fill:#6C7281;" d="M368.686,187.712l-0.015-0.318c-1.338,0.066-2.684,0.027-3.995-0.117l-0.035,0.317
						c0.914,0.099,1.844,0.148,2.777,0.148C367.841,187.743,368.264,187.733,368.686,187.712z"/>
					<path style="fill:#6C7281;" d="M336.896,179.739c1.492,1.852,3.771,3.295,6.59,4.173c2.516,0.784,5.164,1.062,7.726,1.331
						l0.034-0.317c-2.546-0.268-5.179-0.544-7.665-1.318c-2.758-0.859-4.984-2.266-6.437-4.07L336.896,179.739z"/>
					<path style="fill:#6C7281;" d="M322.769,185.538c0.199,0.031,0.4,0.071,0.602,0.112c0.417,0.084,0.843,0.17,1.263,0.17
						c0.283,0,0.563-0.039,0.836-0.144l-0.09-0.233c-0.609,0.233-1.296,0.095-1.96-0.038c-0.206-0.042-0.411-0.083-0.613-0.114
						c-0.953-0.146-1.935-0.063-2.885,0.016c-0.63,0.053-1.27,0.1-1.903,0.085c-0.004,0.084-0.008,0.167-0.013,0.251
						c0.647,0.016,1.297-0.032,1.936-0.087C320.878,185.477,321.844,185.397,322.769,185.538z"/>
					<path style="fill:#6C7281;" d="M329.547,145.989c-0.237-0.844-0.488-1.675-0.744-2.476l-0.303,0.097
						c0.298,0.932,0.593,1.901,0.861,2.889C329.417,146.327,329.486,146.159,329.547,145.989z"/>
					<path style="fill:#6C7281;" d="M410.885,168.261c0.708-0.142,1.429-0.25,2.142-0.32l-0.032-0.317
						c-0.722,0.071-1.454,0.181-2.172,0.326L410.885,168.261z"/>
					<path style="fill:#6C7281;" d="M329.269,146.748l0.176,0.055c-0.027-0.103-0.056-0.203-0.084-0.305
						C329.332,146.582,329.296,146.664,329.269,146.748z"/>
					<path style="fill:#6C7281;" d="M330.949,143.544l-0.282-0.148c-0.438,0.834-0.801,1.707-1.12,2.593
						c0.049,0.174,0.1,0.346,0.147,0.521C330.036,145.494,330.45,144.496,330.949,143.544z"/>
					<path style="fill:#6C7281;" d="M329.706,145.992l-0.318-0.006c-0.004,0.215-0.327,17.778,1.253,31.562
						c0.144,0.826,0.383,1.95,0.771,3.438C329.323,166.925,329.702,146.226,329.706,145.992z"/>
					<path style="fill:#6C7281;" d="M360.614,229.678c0.052-0.036,0.108-0.071,0.159-0.106c0,0,0.062,0.07,0.159,0.176v-54.125
						h-0.318V229.678z"/>
				</g>
				<g>
					<path style="fill:#CA757D;" d="M328.948,269.353c-0.033-0.265-0.097-0.721-0.206-1.475c-0.375-2.613-1.156-8.049-1.643-13.608
						l-0.317,0.027c0.488,5.568,1.27,11.01,1.645,13.626c0.044,0.303,0.081,0.564,0.115,0.801c0.004-0.009,0.002-0.017,0.005-0.026
						C328.627,268.944,328.748,269.18,328.948,269.353z"/>
					<path style="fill:#CA757D;" d="M327.266,269.494c-0.487-1.925-1.931-8.225-2.042-15.615l-0.318,0.005
						c0.109,7.307,1.519,13.563,2.031,15.605C327.042,269.506,327.151,269.507,327.266,269.494z"/>
					<path style="fill:#CA757D;" d="M323.684,256.496l-0.318-0.005c-0.043,2.869,0.396,6.632,0.708,8.916
						c0.153,0.364,0.304,0.729,0.478,1.099C324.267,264.59,323.633,259.903,323.684,256.496z"/>
				</g>
				<g>
					<path style="fill:#FEA67D;" d="M346.426,98.86c0,0-1.976-1.473-3.614-0.709c-1.638,0.764,0.357,6.456,2.512,7.48
						c2.184,1.037,2.565-0.218,2.565-0.218L346.426,98.86z"/>
					<path style="fill:#FEA67D;" d="M375.138,98.86c0,0,1.976-1.473,3.614-0.709c1.638,0.764-0.357,6.456-2.512,7.48
						c-2.184,1.037-2.565-0.218-2.565-0.218L375.138,98.86z"/>
					<path style="fill:#FEA67D;" d="M371.221,124.097c-3.348-2.411-1.697-10.933-1.697-10.933h-17.501c0,0,1.652,8.522-1.697,10.933
						c-3.348,2.411-5.893,3.482-5.893,3.482s-4.152,14.599,16.34,15.269c20.492-0.67,16.34-15.269,16.34-15.269
						S374.569,126.508,371.221,124.097z"/>
					<path style="fill:#FE977D;" d="M369.165,118.977C369.165,118.976,369.165,118.976,369.165,118.977
						c-0.175-2.547,0.23-5.09,0.334-5.677c0-0.003,0.001-0.005,0.001-0.008c0.014-0.078,0.023-0.128,0.023-0.128h-17.501
						c0,0,1.652,8.522-1.697,10.933c-0.97,0.698-1.859,1.272-2.652,1.752C359.146,125.823,365.969,121.661,369.165,118.977z"/>
					<path style="fill:#FEB17D;" d="M367.654,87.178c-2.512,5.46-11.465,3.494-11.465,3.494c-1.529,6.661-9.936,6.115-9.936,6.115
						s0.739,20.672,14.235,23.528c0.188,0.04,0.388,0.04,0.576,0c13.496-2.856,14.235-23.528,14.235-23.528
						C371.585,96.568,367.654,87.178,367.654,87.178z"/>
					<g>
						<path style="fill:#4A4760;" d="M367.817,100.719c0,0.926-0.473,1.677-1.056,1.677c-0.583,0-1.056-0.751-1.056-1.677
							c0-0.926,0.473-1.677,1.056-1.677C367.344,99.042,367.817,99.793,367.817,100.719z"/>
						<path style="fill:#4A4760;" d="M363.749,96.925c2.149-0.437,4.394-0.388,6.522,0.141c0.134,0.033,0.275,0.073,0.371,0.173
							c0.095,0.1,0.119,0.282,0.012,0.369c-0.059,0.048-0.14,0.057-0.215,0.062c-1.295,0.085-2.593-0.294-3.884-0.159
							c-0.992,0.104-1.939,0.508-2.935,0.559c-0.353,0.018-0.928-0.149-0.806-0.629C362.903,97.09,363.454,96.985,363.749,96.925z"
							/>
						<path style="fill:#4A4760;" d="M353.525,100.719c0,0.926,0.473,1.677,1.056,1.677s1.056-0.751,1.056-1.677
							c0-0.926-0.473-1.677-1.056-1.677S353.525,99.793,353.525,100.719z"/>
						<path style="fill:#4A4760;" d="M357.77,96.751c-2.17-0.311-4.409-0.132-6.503,0.519c-0.132,0.041-0.271,0.089-0.36,0.194
							c-0.089,0.106-0.102,0.288,0.01,0.369c0.062,0.045,0.143,0.049,0.219,0.049c1.298,0.01,2.572-0.444,3.868-0.384
							c0.996,0.046,1.965,0.395,2.962,0.388c0.354-0.003,0.917-0.203,0.768-0.675C358.624,96.866,358.068,96.794,357.77,96.751z"/>
					</g>
					<path style="fill:#4A4760;" d="M360.303,110.357l-0.247-0.536c0.407-0.187,0.827-0.38,1.156-0.667
						c0.336-0.293,0.528-0.66,0.525-1.006c-0.001-0.223-0.081-0.452-0.165-0.695c-0.755-2.19-1.211-4.438-1.364-6.714l0.589-0.039
						c0.15,2.224,0.595,4.42,1.322,6.528c0.107,0.31,0.206,0.596,0.208,0.916c0.004,0.518-0.262,1.048-0.728,1.454
						C361.207,109.942,360.727,110.162,360.303,110.357z"/>
					<path style="fill:#FFFFFF;" d="M361.728,113.363c0.305-0.008,0.67-0.01,0.837,0.245c0.179,0.273-0.014,0.644-0.261,0.857
						c-0.717,0.621-1.794,0.598-2.708,0.343c-0.219-0.061-0.436-0.133-0.635-0.244c-0.406-0.227-0.71-0.603-0.952-1.001
						c-0.19-0.314-0.372-0.848,0.056-1.082c0.303-0.166,0.526,0.064,0.787,0.206C359.731,113.166,360.727,113.388,361.728,113.363z"
						/>
				</g>
			</g>
			<g>
				<path style="fill:#FEB17D;" d="M475.647,231.075c0.306,5.002,1.064,16.53,0.188,20.162c-0.877,3.632-2.225,6.888-1.801,8.891
					c0.424,2.004,1.927,12.523,3.805,12.899c0,0,0.407,0.063,0.532,0.438c0.125,0.376,0.25,1.503,0.845,1.659
					c0.595,0.156,1.065,0.25,1.378-0.407c0.313-0.658-0.783-5.87-0.642-7.749c0.141-1.878,0.423-7.42,1.127-7.561
					c0.704-0.141,1.344,1.257,2.254,1.315s0.96-0.666,0.96-0.666s2.062-25.351,0.434-41.005h-9.893
					C474.833,219.053,475.462,228.042,475.647,231.075z"/>
				<g>
					<path style="fill:#E7F1F9;" d="M555.982,164.077c-1.127-5.26-1.503-13.9-2.442-15.403c-0.939-1.503-5.448-7.514-9.768-9.861
						c-4.32-2.347-11.959-6.294-11.959-6.294h-27.551c-3.882,0.501-17.888,8.123-21.164,9.893
						c-4.634,2.505-7.263,31.683-6.888,37.456c0.376,5.773-0.751,19.023-1.378,22.654c-0.626,3.632,1.002,3.757-0.125,5.217
						c-1.127,1.46-0.501,3.675-0.501,3.675l9.893,1.252c0,0,0.376,6.011,0.626,6.888c0.25,0.877,2.254,4.633,3.757,6.011
						c1.503,1.378,11.772,0.751,18.91,1.503c7.138,0.751,30.932-1.503,33.937-2.755c3.005-1.252,1.785-10.363,1.221-13.838
						c-0.564-3.475-0.094-6.575,0.094-7.326c0.188-0.751,2.818-1.878,2.818-1.878s1.879,0.188,3.193,0
						c1.315-0.188,1.315-2.818,1.691-3.099c0.376-0.282,2.442,0.282,2.912-1.033c0.47-1.315,0.751-0.845,3.287-1.878
						c2.536-1.033,3.569-6.762,3.757-8.453C560.491,185.116,557.109,169.337,555.982,164.077z"/>
					<path style="fill:#F5FAFF;" d="M518.459,138.565c0,0,5.477-0.16,7.537,4.787c0,0,2.373-7.764,5.817-10.832
						c0,0-1.503-4.133-5.823-4.039C525.99,128.48,520.821,137.66,518.459,138.565z"/>
					<path style="fill:#F5FAFF;" d="M517.148,138.565c0,0-5.477-0.16-7.537,4.787c0,0-3.057-7.389-6.501-10.457
						c0,0,0.87-5.354,5.19-5.26C508.301,127.635,513.717,137.027,517.148,138.565z"/>
					<path style="fill:#6C7281;" d="M517.301,227.438l-0.697-26.572c-0.106-4.05-0.215-8.236-0.258-12.356
						c-0.179-16.682,0.68-33.61,1.511-49.981l0.318,0.016c-0.831,16.365-1.69,33.289-1.511,49.961
						c0.044,4.117,0.153,8.303,0.259,12.351l0.006,0.23l0.691,26.344L517.301,227.438z"/>
					<g>
						<rect x="525.57" y="160.895" style="fill:#8C9CBD;" width="9.248" height="13.633"/>
						<path style="fill:#C3CCDE;" d="M531.135,165.503c0.24-0.241,0.388-0.572,0.388-0.939c0-0.735-0.595-1.33-1.33-1.33
							c-0.735,0-1.33,0.595-1.33,1.33c0,0.367,0.148,0.699,0.388,0.939h0c-0.962,0.314-1.612,1.21-1.612,2.222v3.45h5.109v-3.45
							C532.748,166.713,532.097,165.817,531.135,165.503L531.135,165.503z"/>
						<rect x="526.625" y="172.302" style="fill:#C3CCDE;" width="7.137" height="1.052"/>
						<rect x="529.471" y="158.704" style="fill:#C3CCDE;" width="1.164" height="3.043"/>
						<path style="fill:#8C9CBD;" d="M531.537,158.428c0,0.82-0.664,1.484-1.484,1.484c-0.819,0-1.484-0.664-1.484-1.484
							c0-0.819,0.664-1.484,1.484-1.484C530.873,156.945,531.537,157.609,531.537,158.428z"/>
					</g>
					<path style="fill:#F5FAFF;" d="M484.727,219.554c-4.383,1.378-8.766,0.501-9.893,0.368s-1.878-6.88-1.878-8.389
						c0-1.509,1.079-0.866,1.079-0.866c3.834,0.881,9.925,1.217,9.925,1.217L484.727,219.554z"/>
					<g>
						<path style="fill:#6C7281;" d="M548.348,182.664c-1.262,0.384-2.57,0.781-3.318,1.876c-0.055,0.078-0.104,0.159-0.155,0.241
							c-0.15,0.242-0.292,0.471-0.511,0.596c-0.229,0.131-0.514,0.132-0.816,0.134c-0.278,0.001-0.558,0.028-0.821,0.132
							c0.194-5.122-0.322-10.24-1.539-15.213l-0.021-0.09c-0.142-0.574-0.287-1.166-0.27-1.75c0.01-0.33,0.07-0.653,0.133-0.994
							c0.035-0.184,0.068-0.367,0.094-0.552c0.134-0.963,0.045-1.935-0.042-2.876c-0.143-1.563-0.331-3.149-0.512-4.681
							c-0.219-1.854-0.444-3.771-0.595-5.66c-0.112-1.374,0.16-2.75,0.785-3.982l-0.283-0.144c-0.564,1.111-0.834,2.336-0.827,3.573
							c-0.374-0.682-0.571-1.503-0.753-2.311c-0.199-0.883-0.405-1.797-0.852-2.539l-0.273,0.164
							c0.421,0.699,0.622,1.587,0.815,2.445c0.229,1.015,0.47,2.061,1.074,2.857c0.153,1.883,0.377,3.789,0.594,5.634
							c0.181,1.531,0.368,3.115,0.512,4.673c0.085,0.923,0.173,1.877,0.042,2.803c-0.025,0.18-0.058,0.359-0.092,0.538
							c-0.062,0.338-0.127,0.688-0.138,1.043c-0.019,0.628,0.133,1.241,0.278,1.835l0.022,0.09
							c1.22,4.986,1.735,10.118,1.528,15.254l0.084,0.003c-0.276,0.204-0.431,0.503-0.567,0.802
							c-0.087,0.192-0.17,0.373-0.285,0.526c-0.185,0.247-0.475,0.442-0.755,0.63c-0.467,0.315-0.951,0.641-1.004,1.23l0.316,0.03
							c0.041-0.439,0.442-0.709,0.867-0.995c0.301-0.203,0.614-0.414,0.83-0.703c0.135-0.18,0.23-0.386,0.321-0.585
							c0.134-0.294,0.261-0.573,0.503-0.723c0.23-0.143,0.523-0.144,0.833-0.145c0.329-0.002,0.671-0.004,0.972-0.176
							c0.288-0.165,0.458-0.439,0.624-0.704c0.047-0.077,0.096-0.154,0.147-0.228c0.686-1.004,1.883-1.367,3.149-1.752
							c1.166-0.355,2.37-0.721,3.17-1.632l-0.239-0.21C550.632,181.971,549.471,182.323,548.348,182.664z"/>
						<path style="fill:#6C7281;" d="M550.191,197.787c-0.521-1.055-0.913-2.171-1.168-3.316l-0.311,0.068
							c0.26,1.171,0.661,2.311,1.193,3.389c0.076,0.152,0.179,0.311,0.348,0.396c0.03-0.062,0.059-0.126,0.094-0.152
							c0.004-0.003,0.012-0.003,0.016-0.005l0.042-0.111C550.313,198.02,550.246,197.898,550.191,197.787z"/>
						<path style="fill:#6C7281;" d="M554.006,194.251l-0.298,0.112c0.209,0.551,0.374,1.119,0.493,1.686l0.139-0.029
							c0.056-0.019,0.103-0.037,0.166-0.056C554.385,195.387,554.217,194.811,554.006,194.251z"/>
						
							<rect x="547.605" y="191.915" transform="matrix(0.7877 -0.616 0.616 0.7877 -2.355 378.3312)" style="fill:#6C7281;" width="0.319" height="1.335"/>
						<path style="fill:#6C7281;" d="M542.552,210.475c-0.013-0.08-0.018-0.156-0.03-0.235l-7.098,3.512l0.142,0.285l7.002-3.464
							C542.562,210.542,542.556,210.504,542.552,210.475z"/>
						<path style="fill:#6C7281;" d="M490.454,150.005l0.311-0.068c-0.532-2.406-1.806-4.669-3.587-6.372l-0.219,0.23
							C488.695,145.454,489.936,147.66,490.454,150.005z"/>
						
							<rect x="531.297" y="214.859" transform="matrix(0.9903 -0.1389 0.1389 0.9903 -24.716 76.0063)" style="fill:#6C7281;" width="1.399" height="0.318"/>
						<path style="fill:#6C7281;" d="M502.522,200.661c0.477-0.254,1.081-0.277,1.579-0.06l0.127-0.291
							c-0.594-0.262-1.287-0.234-1.855,0.07L502.522,200.661z"/>
						<path style="fill:#6C7281;" d="M488.675,199.03c0.9,0.139,1.776,0.469,2.624,0.788c0.877,0.33,1.784,0.671,2.732,0.811
							c0.384,0.057,0.769,0.079,1.154,0.079c0.85,0,1.699-0.112,2.529-0.22c0.815-0.108,1.658-0.218,2.483-0.22v-0.318
							c-0.846,0.002-1.699,0.114-2.524,0.222c-1.185,0.156-2.411,0.316-3.595,0.142c-0.915-0.135-1.807-0.47-2.668-0.794
							c-0.863-0.325-1.756-0.66-2.686-0.805c-0.304-0.047-0.622-0.078-0.932-0.107c-1.029-0.099-2.094-0.201-2.747-0.925
							l-0.041,0.037c-0.028-0.397-0.057-0.793-0.112-1.189c-0.079-0.568-0.188-1.146-0.293-1.705
							c-0.293-1.558-0.596-3.169-0.278-4.715c0.097-0.465,0.251-0.929,0.4-1.376c0.135-0.404,0.275-0.823,0.374-1.248
							c0.313-1.338,0.231-2.731,0.152-4.078l-0.033-0.609c-0.134-2.577,0.325-5.249,0.77-7.832c0.565-3.287,1.149-6.686,0.524-9.941
							l-0.353-1.833c0.386-0.651,0.675-1.351,0.847-2.089l-0.311-0.072c-0.134,0.58-0.361,1.128-0.634,1.653l-0.733-3.812
							l-0.313,0.062l1.183,6.151c0.615,3.198,0.035,6.568-0.526,9.827c-0.447,2.601-0.91,5.29-0.774,7.902l0.035,0.611
							c0.077,1.325,0.158,2.695-0.145,3.987c-0.096,0.411-0.232,0.822-0.365,1.22c-0.152,0.457-0.309,0.929-0.409,1.412
							c-0.332,1.607-0.022,3.25,0.276,4.839c0.104,0.555,0.212,1.129,0.291,1.689c0.283,2.031,0.201,4.078-0.244,6.084
							c-0.066,0.296-0.139,0.59-0.212,0.885c-0.163,0.655-0.331,1.333-0.408,2.02c-0.079,0.715-0.058,1.443-0.037,2.171l0.051,1.715
							c-0.019-0.001-0.037-0.005-0.056-0.005l-0.01,0.318c0.025,0.001,0.05,0.006,0.075,0.007l0.085,2.862l0.279,0.035
							c0,0,0.006,0.091,0.016,0.244l0.032-0.001l-0.093-3.11c1.151,0.096,2.279,0.431,3.281,1.006l0.159-0.276
							c-1.054-0.604-2.24-0.955-3.45-1.05l-0.053-1.78c-0.02-0.692-0.041-1.408,0.036-2.101c0.075-0.666,0.241-1.333,0.401-1.978
							c0.073-0.297,0.148-0.594,0.214-0.893c0.341-1.534,0.472-3.092,0.394-4.649c0.73,0.627,1.736,0.752,2.724,0.847
							C488.067,198.955,488.38,198.985,488.675,199.03z"/>
					</g>
					<path style="fill:#F5FAFF;" d="M539.202,188.121c0,0-4.821,3.694-4.696,4.884c0.125,1.19,0.623,2.818,1.595,3.945
						c0.972,1.127,3.336,7.639,3.939,7.764c0.603,0.125,2.732-0.063,3.608-0.564s2.943-1.064,3.131-1.378
						C546.966,202.46,541.143,189.123,539.202,188.121z"/>
				</g>
				<path style="fill:#FEB17D;" d="M525.99,118.713l-16.718-0.563c0,0,0.376,8.171-0.845,9.204
					c-1.221,1.033,6.804,11.365,9.225,11.459c2.421,0.094,8.245-9.768,8.339-10.331C526.084,127.917,525.051,125.005,525.99,118.713
					z"/>
				<path style="fill:#FEB17D;" d="M538.763,202.453c0,0-9.831,6.018-11.333,7.145c-1.503,1.127-4.133,3.945-5.385,5.26
					c-1.252,1.315-7.326,2.943-8.14,2.818c-0.814-0.125-1.503-0.751-1.002-1.503c0,0-6.512,2.017-7.326,1.51
					c-0.814-0.508-0.751-1.134,0-1.572c0,0-2.379,0.563-2.818,0.376c-0.438-0.188-0.939-1.064-0.313-1.691
					c0.626-0.626,2.379-0.814,3.506-1.064c1.127-0.251,2.88-1.002,2.88-1.002s-2.755-0.251-4.07-0.814
					c-1.315-0.564-2.254-1.378-2.191-2.066c0.063-0.689,1.064-1.565,2.066-1.002c1.002,0.564,1.941,1.335,2.505,1.262
					c0.564-0.072,2.066-0.448,2.317-0.511c0.25-0.063,4.446-1.941,5.385-2.692c0,0-1.378-0.376-2.004-0.751
					c-0.626-0.376-1.19-1.315-0.689-1.816c0.501-0.501,3.444-1.565,6.199-1.315c0.832,0.076,3.882-0.626,5.072-1.565
					c1.19-0.939,13.587-8.641,13.587-8.641L538.763,202.453z"/>
				<g>
					<path style="fill:#CA757D;" d="M505.337,216.277c1.881-0.482,5.88-1.545,7.322-2.23c1.86-0.884,3.878-2.012,3.899-2.024
						l-0.157-0.277c-0.02,0.011-2.028,1.134-3.879,2.014c-1.843,0.875-8.198,2.445-8.263,2.461l0.038,0.154
						c0.663-0.119,1.28-0.264,1.28-0.264C505.487,216.163,505.407,216.219,505.337,216.277z"/>
					<path style="fill:#CA757D;" d="M508.833,212.729c0,0-0.154,0.065-0.386,0.159c1.214-0.279,3.3-0.959,6.608-2.6l-0.142-0.285
						c-3.61,1.79-5.75,2.417-6.863,2.636C508.511,212.698,508.833,212.729,508.833,212.729z"/>
					<path style="fill:#CA757D;" d="M512.903,216.173c-0.084,0.125-0.124,0.245-0.146,0.362l0.233-0.224
						c0.368-0.14,3.934-1.51,5.879-2.646l-0.162-0.275c-2.018,1.179-5.821,2.62-5.86,2.634l-0.26,0.245
						C512.786,216.209,512.903,216.173,512.903,216.173z"/>
				</g>
				<g>
					<polygon style="fill:#FEB17D;" points="528.419,417.418 530.026,435.499 539.937,434.294 539.401,413.935 					"/>
					<path style="fill:#4A4760;" d="M527.151,442.121h33.875c0,0,1.002-3.256-0.626-4.258c-1.628-1.002-6.512,0.171-12.523-2.505
						c-6.011-2.675-7.389-3.632-8.516-3.506c-1.127,0.125-2.755,0.831-6.011,0.831c-3.256,0-3.381-1.684-4.696-0.842
						c-1.315,0.842-1.941,2.703-1.816,4.519C526.963,438.176,527.151,442.121,527.151,442.121z"/>
				</g>
				<g>
					<polygon style="fill:#FEB17D;" points="493.624,415.211 491.821,435.499 481.91,434.294 482.445,413.935 					"/>
					<path style="fill:#4A4760;" d="M494.696,442.121h-33.875c0,0-1.002-3.256,0.626-4.258c1.628-1.002,6.512,0.171,12.523-2.505
						c6.011-2.675,7.389-3.632,8.516-3.506c1.127,0.125,2.755,0.831,6.011,0.831c3.256,0,3.381-1.684,4.696-0.842
						c1.315,0.842,1.941,2.703,1.816,4.519C494.884,438.176,494.696,442.121,494.696,442.121z"/>
				</g>
				<g>
					<path style="fill:#8C9CBD;" d="M540.643,224.528C540.643,224.528,540.643,224.528,540.643,224.528
						c-4.893,1.276-26.504,3.249-33.25,2.539c-7.138-0.751-17.407-0.125-18.91-1.503c0,0-1.565,3.506,0,5.009h52.159
						C540.643,230.574,542.773,226.184,540.643,224.528z"/>
					<path style="fill:#717E98;" d="M540.643,230.574h-52.159c0,0-1.724,1.691-1.864,5.072c-0.14,3.381-1.35,5.447-1.402,9.58
						c-0.052,4.133-3.621,50.53-3.997,68.376c-0.376,17.845,0.751,94.707-1.69,101.641c0,0,1.315,2.425,5.447,2.05
						c4.133-0.376,12.21,0.04,12.21,0.04s5.26-22.957,7.889-48.128c2.63-25.171,8.453-72.696,8.453-72.696s0.564,30.431,2.63,45.271
						c2.066,14.84,9.392,76.641,9.392,76.641s4.133,1.453,7.89,1.196c3.757-0.257,9.204-3.287,9.204-3.287
						s1.315-83.378,1.315-118.505C543.96,262.696,544.276,234.519,540.643,230.574z"/>
					<g>
						<path style="fill:#3C333A;" d="M518.466,265.163l-0.313-0.06c-0.191,1.012-0.426,2.182-0.69,3.498
							c-1.435,7.146-3.809,19.022-4.528,32.786c0.373-3.071,0.594-4.879,0.594-4.879s0.003,0.17,0.009,0.461
							c0.934-11.843,2.96-21.947,4.236-28.306C518.039,267.347,518.274,266.176,518.466,265.163z"/>
						<path style="fill:#3C333A;" d="M520.302,253.183c-0.42,1.796-0.773,3.433-1.046,4.87l0.313,0.06
							c0.272-1.431,0.624-3.065,1.044-4.857c0.926-3.95,1.889-7.388,1.899-7.422l-0.306-0.087
							C522.196,245.781,521.23,249.225,520.302,253.183z"/>
					</g>
					<g>
						<path style="fill:#3C333A;" d="M493.367,360.39l0.311,0.065c0.783-3.791,3.687-6.917,6.021-9.43l8.412-9.046
							c0.021-0.178,0.041-0.356,0.062-0.534l-8.707,9.364C497.104,353.35,494.166,356.512,493.367,360.39z"/>
						<path style="fill:#3C333A;" d="M520.003,372.249c3.2,1.556,6.529,2.845,9.941,3.837l0.09-0.306
							c-3.46-1.006-6.836-2.316-10.076-3.905C519.972,372,519.987,372.124,520.003,372.249z"/>
						<path style="fill:#3C333A;" d="M538.967,380.188l0.273-0.162c-1.055-1.784-3.22-2.834-5.287-2.567l0.042,0.316
							C535.915,377.516,537.973,378.509,538.967,380.188z"/>
					</g>
					<g>
						<path style="fill:#717E98;" d="M502.812,226.756c-0.439-0.019-0.879-0.036-1.32-0.051v3.869h1.32V226.756z"/>
						<path style="fill:#717E98;" d="M523.715,230.574h1.32v-4.059c-0.439,0.037-0.879,0.072-1.32,0.107V230.574z"/>
						<path style="fill:#717E98;" d="M492.765,230.574h1.32v-4.087c-0.46-0.02-0.899-0.044-1.32-0.07V230.574z"/>
						<path style="fill:#717E98;" d="M533.762,225.632c-0.43,0.052-0.869,0.104-1.32,0.156v4.786h1.32V225.632z"/>
					</g>
				</g>
				<g>
					<path style="fill:#4A4760;" d="M531.823,103.537c1.869-1.66,6.248-3.571,6.462-6.062c0.073-0.847-0.073-1.704,0.039-2.547
						c0.161-1.21,0.848-2.407,0.518-3.582c-0.128-0.457-0.402-0.859-0.569-1.304c-0.419-1.115-0.129-2.352-0.077-3.543
						c0.052-1.19-2.674-2.592-3.777-3.042c-0.87-0.355-1.913,0.024-2.779-0.342c-0.93-0.393-1.394-0.952-2.205-1.553
						c-1.49-1.105-3.373-1.667-5.225-1.561c-2.162,0.124-4.407,1.108-6.409,0.282c-0.516-0.213-0.979-0.537-1.476-0.792
						c-1.315-0.674-2.881-0.844-4.31-0.469c-1.916,0.504-3.501,1.919-5.427,2.383c-1.3,0.313-2.81,0.227-3.782,1.145
						c-0.896,0.846-0.973,2.212-1.301,3.4c-0.552,1.995-1.935,3.697-2.391,5.717c-0.406,1.797-0.041,3.667-0.016,5.51
						c0.052,3.801-1.324,7.786,0.146,11.291c0.814,1.941,2.401,3.437,3.978,4.832c1.252,1.108,2.544,2.203,4.044,2.942
						c1.5,0.739,3.248,1.098,4.863,0.661c1.015-0.274,1.922-0.843,2.808-1.41C520.508,111.924,526.875,107.933,531.823,103.537z"/>
					<path style="fill:#FEB17D;" d="M503.885,99.331c0,0,0.125,18.659,9.142,21.79c9.016,3.131,14.026-2.379,16.029-6.136
						c2.004-3.757,4.383-18.785,4.383-18.785s-1.628,0-1.503-2.254c0,0-5.385,0.751-6.637-4.633c0,0-7.389,1.127-11.02-2.004
						c-0.295,1.171-1.285,2.186-2.386,2.682c-1.101,0.496-2.332,0.619-3.539,0.634c-0.204,3.168-1.12,6.348-2.674,9.116
						c-0.214,0.382-0.478,0.787-0.898,0.911C504.361,100.777,503.74,99.745,503.885,99.331z"/>
					<path style="fill:#FEB17D;" d="M503.39,100.031c0,0-0.814-1.878-2.755-2.066c-1.941-0.188-1.628,6.324,0.438,7.89
						c2.066,1.565,2.254,1.19,2.317,1.002C503.453,106.669,503.099,102.498,503.39,100.031z"/>
					<path style="fill:#4A4760;" d="M505.37,105.563c0.347,0.985,0.502,2.029,0.842,3.016c0.34,0.987,0.913,1.957,1.836,2.446
						c1.216,0.646,2.697,0.31,4.034-0.023c1.399-0.348,2.855-0.68,4.27-0.404c0.717,0.14,1.419,0.435,2.147,0.384
						c0.384-0.027,0.755-0.149,1.129-0.241c1.391-0.342,2.883-0.26,4.228,0.232c0.494,0.181,0.972,0.416,1.488,0.518
						c1.158,0.229,2.373-0.259,3.248-1.052s1.455-1.857,1.925-2.94c0.126-0.29,0.255-0.596,0.507-0.788
						c0.251-0.192,0.666-0.21,0.846,0.05c0.084,0.121,0.102,0.275,0.112,0.422c0.232,3.252-1.658,6.275-2.065,9.51
						c-0.109,0.866-0.125,1.791-0.6,2.523c-0.425,0.656-1.149,1.045-1.842,1.407c-2.765,1.445-5.605,2.914-8.701,3.308
						c-0.965,0.123-1.95,0.138-2.907-0.041c-0.984-0.184-1.919-0.569-2.831-0.981c-1.774-0.801-3.615-1.833-4.437-3.597
						c-0.304-0.652-0.457-1.385-0.897-1.955c-0.249-0.323-0.578-0.576-0.847-0.882c-0.708-0.806-0.948-1.91-1.164-2.961
						c-0.505-2.466-1.01-4.932-1.514-7.398C503.857,104.555,504.771,103.862,505.37,105.563z"/>
					<path style="fill:#FEB17D;" d="M519.905,114.294c0.747-0.047,1.525-0.088,2.213,0.205c0.126,0.054,0.252,0.123,0.328,0.237
						c0.201,0.303-0.068,0.707-0.375,0.902c-0.524,0.334-1.165,0.413-1.782,0.484c-0.64,0.074-1.286,0.147-1.925,0.078
						c-0.64-0.07-1.283-0.296-1.742-0.747c-0.155-0.152-0.291-0.338-0.32-0.553c-0.029-0.215,0.078-0.459,0.283-0.53
						c0.083-0.029,0.173-0.027,0.261-0.025C517.872,114.365,518.88,114.294,519.905,114.294z"/>
				</g>
			</g>
			<g>
				<path style="fill:#FEB17D;" d="M270.483,223.513c-0.065,4.938-0.267,16.321,0.767,19.855c1.034,3.533,2.516,6.675,2.193,8.667
					c-0.323,1.992-1.305,12.418-3.136,12.876c0,0-0.398,0.081-0.503,0.457c-0.106,0.376-0.176,1.491-0.754,1.673
					c-0.578,0.182-1.036,0.297-1.375-0.336c-0.339-0.632,0.493-5.815,0.266-7.657c-0.227-1.842-0.766-7.284-1.466-7.389
					c-0.7-0.105-1.263,1.301-2.157,1.401c-0.894,0.1-0.976-0.61-0.976-0.61s-3.226-24.856-2.363-40.341l9.738-0.467
					C270.716,211.641,270.522,220.519,270.483,223.513z"/>
				<g>
					<path style="fill:#FEB17D;" d="M155.862,145.379c0,0-1.848-1.716-1.914-4.224c-0.066-2.508,0.198-4.422-0.396-5.874
						c-0.594-1.452-3.564-4.751-3.762-6.995c-0.198-2.244,0.528-4.554,0.33-5.015c-0.198-0.462-1.848-0.528-2.574,0
						c-0.726,0.528-1.98,2.046-2.178,3.432c-0.198,1.386,0.924,6.138,0.528,6.467c-0.396,0.33-3.894,0.066-5.016,0.132
						s-3.762,0.528-3.96,1.32s-0.396,2.178,0,2.508c0.396,0.33-1.188,1.122-0.726,2.574c0.462,1.452-0.462,1.518,0.264,3.102
						c-0.579,0.75-0.597,1.824-0.061,2.605s1.368,1.3,2.175,1.795c0.823,0.505,1.658,1.015,2.582,1.295
						c0.948,0.286,1.951,0.318,2.94,0.348c0.866,0.026,0.477,0.052,1.343,0.078c0.192,0.006,0.353,0.279,0.487,0.417
						c0.938,0.968,1.823,1.987,2.649,3.052c2.5-1.994,5.245-3.737,8.087-5.202c0.312-0.161,0.653-0.348,0.773-0.678
						C157.117,146.024,156.449,145.379,155.862,145.379z"/>
					<path style="fill:#CA757D;" d="M145.73,139.072c0.007-0.394-0.246-0.799-0.644-1.03c-0.153-0.089-0.598-0.162-1.441-0.235
						c0.171-0.028,0.341-0.05,0.512-0.08c0.768-0.135,1.192-0.451,1.228-0.911l0.007-0.083c0.028-0.318,0.065-0.754-0.244-0.927
						c-0.316-0.176-0.954-0.266-1.078-0.282c-0.162-0.021-0.537-0.053-0.91-0.085c-0.359-0.03-0.716-0.06-0.872-0.08l-0.04,0.311
						c0.159,0.02,0.522,0.051,0.887,0.082c0.367,0.031,0.737,0.062,0.896,0.083c0.342,0.044,0.773,0.138,0.966,0.245
						c0.132,0.074,0.102,0.42,0.085,0.626l-0.007,0.086c-0.031,0.402-0.621,0.565-0.97,0.627c-1.043,0.184-2.062,0.346-3.1,0.291
						c-0.511-0.026-1.018-0.105-1.508-0.181l-2.572-0.396c0.092,0.078,0.07,0.184-0.005,0.316l2.529,0.39
						c0.498,0.077,1.013,0.157,1.54,0.184c0.143,0.007,0.286,0.01,0.428,0.01c0.216,0,0.429-0.029,0.644-0.043l-0.001,0.018
						l0.249,0.016c1.578,0.098,2.459,0.195,2.621,0.288c0.302,0.176,0.493,0.472,0.489,0.755c-0.005,0.275-0.201,0.565-0.5,0.738
						c-0.198,0.115-1.377,0.192-1.943,0.228c-0.267,0.017-0.482,0.031-0.581,0.044c-2.134,0.273-4.373,0.082-6.145-0.522
						l-0.051,0.149c0.021,0.065,0.025,0.114,0.041,0.174c1.256,0.415,2.728,0.634,4.232,0.634c0.654,0,1.314-0.041,1.963-0.124
						c0.044-0.006,0.116-0.011,0.201-0.018c0.105-0.004,0.21-0.009,0.315-0.015c0.524-0.026,1.022-0.053,1.458,0.165
						c0.49,0.246,0.873,0.849,0.664,1.356c-0.179,0.436-0.71,0.678-1.619,0.74c-2.327,0.157-4.67,0.069-6.974-0.262l-0.044,0.31
						c1.578,0.228,3.176,0.342,4.773,0.342c0.06,0,0.12-0.006,0.179-0.006l0,0.001c0.405-0.025,0.969,0.01,1.369,0.335
						c0.326,0.264,0.513,0.813,0.261,1.177c-0.13,0.19-0.369,0.327-0.708,0.408c-0.415,0.1-0.85,0.106-1.298,0.102
						c-1.346-0.008-2.771-0.081-4.073-0.563l-0.109,0.294c1.348,0.498,2.806,0.574,4.18,0.582c0.052,0.001,0.103,0.001,0.156,0.001
						c0.413,0,0.819-0.015,1.218-0.111c0.416-0.1,0.716-0.28,0.893-0.535c0.355-0.514,0.12-1.242-0.321-1.6
						c-0.077-0.063-0.19-0.088-0.28-0.136c0.266-0.012,0.534-0.009,0.8-0.027c0.383-0.026,1.547-0.105,1.889-0.932
						c0.285-0.69-0.2-1.449-0.813-1.757c-0.023-0.011-0.047-0.015-0.07-0.026c0.275-0.038,0.497-0.081,0.598-0.139
						C145.472,139.846,145.723,139.461,145.73,139.072z"/>
				</g>
				<g>
					<polygon style="fill:#DADFE8;" points="146.348,153.207 145.226,151.491 156.247,143.176 158.359,145.221 					"/>
					<path style="fill:#DADFE8;" d="M260.914,235.369v2.574c0,0,4.752,0.792,6.731,0.594c1.98-0.198,6.038-0.891,6.038-0.891
						l-0.495-3.069L260.914,235.369z"/>
					<path style="fill:#E7F1F9;" d="M237.706,124.367c0,0,18.654,5.939,23.934,12.539c5.28,6.599,5.411,15.047,6.203,21.646
						c0.792,6.599,2.376,22.966,2.904,25.342c0.528,2.376,0.264,4.751,0,8.843c-0.264,4.092,2.112,5.409,1.848,8.446
						c-0.264,3.037,0.041,6.469,0.02,10.428c-0.02,3.96,1.827,24.286,1.827,24.286s-8.183,2.64-14.255,0l-0.528-16.902
						c0,0-11.262,3.968-20.282,2.912c-9.02-1.056-34.625,1.568-37.529-2.912c-2.904-4.48-0.792-9.586-1.056-12.84
						c-0.264-3.254-1.137-11.966-1.137-11.966s-0.711,8.975-5.99,9.239c-3.188,0.159-6.408-1.117-9.037-2.798
						c-2.312-1.478-3.824-3.792-6.081-5.307c-1.595-1.07-3.567-1.564-4.977-2.869c-0.983-0.91-1.635-2.168-2.745-2.918
						c-0.771-0.522-1.729-0.771-2.391-1.426c-0.4-0.396-0.658-0.908-0.91-1.412c-0.628-1.257-1.178-2.614-1.906-3.815
						c-3.253-5.364-7.001-10.558-10.481-15.797c-3.111-4.683-6.098-9.784-9.912-13.945l12.935-9.041c0,0,7.325,7.523,11.087,13.463
						c3.762,5.939,11.087,12.077,13.067,15.641c0,0,0.495-8.909,0-13.562c-0.495-4.652,2.904-16.531,3.894-19.006
						c0.99-2.475,10.744-12.704,22.646-16.004C220.756,121.332,237.706,124.367,237.706,124.367z"/>
					<g>
						<path style="fill:#6C7281;" d="M267.864,228.497l-0.026-0.314c-2.613,0.213-5.262,0.253-7.887,0.148l0.01,0.319
							c0.858,0.034,1.718,0.062,2.579,0.062C264.319,228.712,266.1,228.64,267.864,228.497z"/>
						<polygon style="fill:#6C7281;" points="265.503,197.225 266.555,196.946 266.474,196.643 265.422,196.923 						"/>
						
							<rect x="244.994" y="200.608" transform="matrix(0.9851 -0.1717 0.1717 0.9851 -30.8251 45.1921)" style="fill:#6C7281;" width="1.606" height="0.313"/>
						<path style="fill:#6C7281;" d="M261.569,213.579c0.003,0.991,0.006,2.016-0.292,2.968c-0.312,0.993-0.941,1.855-1.611,2.635
							l0.014,0.463c0.773-0.871,1.531-1.843,1.896-3.005c0.313-0.998,0.31-2.047,0.307-3.061c-0.004-1.272,0.154-2.59,0.305-3.863
							c0.234-1.959,0.476-3.985,0.149-5.929c-0.807-4.793-1.15-9.688-1.021-14.549c0.016-0.588,0.039-1.177,0.061-1.766
							c0.065-1.699,0.133-3.455,0.026-5.184c-0.141-2.277-0.588-4.554-1.02-6.755c-0.483-2.462-0.983-5.008-1.051-7.547
							c-0.02-0.757-0.034-1.521-0.048-2.289c-0.057-3.165-0.116-6.438-0.642-9.539c-0.238-1.402-0.683-2.757-1.323-4.025
							l-0.28,0.141c0.626,1.241,1.062,2.566,1.295,3.937c0.521,3.077,0.58,6.338,0.637,9.492c0.013,0.769,0.027,1.534,0.048,2.292
							c0.069,2.565,0.571,5.124,1.056,7.598c0.43,2.192,0.875,4.458,1.014,6.715c0.107,1.712,0.039,3.461-0.026,5.152
							c-0.023,0.59-0.045,1.18-0.061,1.769c-0.07,2.622,0.008,5.252,0.211,7.872c-1.887,0.021-3.729,0.562-5.511,1.092
							c-0.698,0.208-1.419,0.423-2.131,0.602c-1.421,0.358-2.886,0.593-4.354,0.699l0.022,0.312
							c1.486-0.106,2.969-0.344,4.408-0.707c0.719-0.181,1.443-0.396,2.144-0.605c1.769-0.526,3.598-1.065,5.451-1.081
							c0.176,2.154,0.427,4.301,0.785,6.426c0.32,1.899,0.08,3.901-0.151,5.838C261.723,210.962,261.565,212.289,261.569,213.579z"
							/>
						
							<rect x="256.327" y="145.866" transform="matrix(0.9895 -0.1447 0.1447 0.9895 -18.7137 38.6665)" style="fill:#6C7281;" width="0.313" height="4.255"/>
						<path style="fill:#6C7281;" d="M268.426,196.022c0.855-0.187,1.695-0.447,2.524-0.739c-0.023-0.098-0.032-0.213-0.052-0.315
							c-0.833,0.296-1.677,0.56-2.539,0.748L268.426,196.022z"/>
						<path style="fill:#6C7281;" d="M174.429,184.462c-1.111,1.114-2.017,2.399-2.692,3.819l-0.103,0.219
							c-0.193,0.411-0.395,0.822-0.649,1.171c0.083,0.063,0.159,0.134,0.238,0.202c0.282-0.382,0.5-0.822,0.695-1.24l0.102-0.217
							c0.661-1.387,1.546-2.644,2.631-3.732L174.429,184.462z"/>
						<path style="fill:#6C7281;" d="M211.692,204.831c-0.452-0.1-0.905-0.249-1.343-0.394c-0.672-0.222-1.367-0.451-2.091-0.515
							c-1.094-0.096-2.21,0.199-3.192,0.459l0.081,0.302c1.003-0.266,2.041-0.539,3.085-0.449c0.688,0.061,1.365,0.284,2.02,0.5
							c0.446,0.147,0.906,0.299,1.374,0.402c0.496,0.11,1.002,0.163,1.506,0.163c1.604,0,3.197-0.543,4.459-1.554l-0.196-0.245
							C215.807,204.772,213.672,205.266,211.692,204.831z"/>
						<path style="fill:#6C7281;" d="M189.055,187.735c0.348,0.395,0.741,0.752,1.169,1.062l0.184-0.255
							c-0.409-0.295-0.785-0.636-1.117-1.014L189.055,187.735z"/>
						<path style="fill:#6C7281;" d="M175.831,183.419l0.277,0.147c0.311-0.589,0.762-1.104,1.306-1.49l-0.181-0.256
							C176.649,182.235,176.165,182.788,175.831,183.419z"/>
						<path style="fill:#6C7281;" d="M185.439,181.385c1.878,4.153,2.699,4.7,2.733,4.721l0.17-0.264
							c-0.033-0.022-0.808-0.588-2.617-4.587c-1.226-2.71-2.587-6.417-3.379-8.647c-0.018,0.368-0.03,0.595-0.03,0.595
							c-0.061-0.11-0.143-0.231-0.214-0.346C182.901,175.105,184.235,178.723,185.439,181.385z"/>
						<path style="fill:#6C7281;" d="M198.652,136.187c1.251,2.781,1.965,5.862,2.066,8.909l0.313-0.01
							c-0.102-3.089-0.826-6.211-2.094-9.028L198.652,136.187z"/>
						<path style="fill:#6C7281;" d="M200.244,186.756c0.092-2.579-0.124-5.194-0.333-7.722c-0.202-2.444-0.411-4.971-0.339-7.457
							c0.07-2.421,0.403-4.831,0.768-7.292c0.222-1.499,0.354-2.834-0.297-3.98c-0.058-0.102-0.123-0.205-0.187-0.309
							c-0.27-0.431-0.525-0.838-0.375-1.231l-0.293-0.111c-0.205,0.538,0.117,1.054,0.402,1.508c0.062,0.1,0.124,0.199,0.18,0.297
							c0.602,1.06,0.474,2.339,0.261,3.779c-0.366,2.471-0.7,4.891-0.771,7.331c-0.072,2.503,0.138,5.039,0.34,7.491
							c0.208,2.519,0.424,5.124,0.332,7.685c-0.045,1.271-0.168,2.565-0.286,3.817c-0.172,1.823-0.337,3.695-0.283,5.559
							c0.228-1.127,0.295-1.932,0.295-1.932s0.01,0.095,0.023,0.232c0.045-1.286,0.158-2.569,0.277-3.829
							C200.075,189.335,200.198,188.037,200.244,186.756z"/>
					</g>
					<path style="fill:#FFFFFF;" d="M236.261,153.902c4.771-0.117,9.574-0.236,14.218-0.923c0.131,0.537,0.172,1.016,0.303,1.553
						c-1.233,0.521-2.728,0.649-4.199,0.746c-3.285,0.216-6.597,0.273-9.9,0.171C236.465,154.975,236.112,154.385,236.261,153.902z"
						/>
				</g>
				<g>
					<g>
						<polygon style="fill:#FEB17D;" points="223.988,425.25 223.744,440.002 216.537,439.125 215.859,424.323 						"/>
						<path style="fill:#4A4760;" d="M225.996,444.817h-27.888c0,0-0.825-2.681,0.516-3.505s5.361,0.14,10.31-2.062
							c4.949-2.202,6.083-2.99,7.011-2.887c0.928,0.103,2.268,0.684,4.949,0.684c2.68,0,2.784-1.387,3.866-0.693
							c1.083,0.693,1.598,2.225,1.495,3.72C226.15,441.569,225.996,444.817,225.996,444.817z"/>
					</g>
					<g>
						<polygon style="fill:#FEB17D;" points="261.497,425.25 262.612,440.002 269.819,439.125 269.625,424.323 						"/>
						<path style="fill:#4A4760;" d="M260.36,444.817h27.888c0,0,0.825-2.681-0.516-3.505s-5.361,0.14-10.31-2.062
							c-4.949-2.202-6.083-2.99-7.011-2.887c-0.928,0.103-2.268,0.684-4.949,0.684s-2.784-1.387-3.866-0.693
							c-1.082,0.693-1.598,2.225-1.495,3.72C260.205,441.569,260.36,444.817,260.36,444.817z"/>
					</g>
				</g>
				<g>
					<path style="fill:#FEA67D;" d="M231.81,108.661c0,0-0.264,10.823,0.924,12.671c1.188,1.848-4.883,8.843-8.579,9.107
						c-3.696,0.264-9.371-5.279-8.843-8.315c0.528-3.036,1.119-9.371-0.034-12.143C214.124,107.209,231.81,108.661,231.81,108.661z"
						/>
					<path style="fill:#FE977D;" d="M215.278,109.981c0.416,1.001,0.603,2.469,0.65,4.075c2.594,1.208,8.588,3.579,16.106,3.939
						c-0.355-3.829-0.223-9.334-0.223-9.334S214.124,107.209,215.278,109.981z"/>
					<path style="fill:#4A4760;" d="M206.639,87.037c-1.559-0.473-2.452-2.165-2.641-3.783c-0.189-1.618,0.152-3.246,0.197-4.874
						c0.071-2.615-0.645-5.247-2.031-7.465c1.729,0.479,3.639,0.51,5.43,0.396c3.345-0.213,6.196-2.444,9.407-3.407
						c2.812-0.844,5.917-0.673,8.619,0.475c1.753-1.502,4.637-1.419,6.522-0.087c1.145,0.81,1.914,2.037,2.892,3.042
						c1.846,1.898,4.557,2.707,5.687,5.101c1.13,2.394,1.593,5.04,2.045,7.649c0.591,3.417,1.156,7.073-0.261,10.238
						c-0.745,1.665-1.985,3.052-3.205,4.408c-0.915,1.018-1.83,2.035-2.745,3.053c-0.349,0.388-0.711,0.786-1.186,1.002
						c-0.581,0.265-1.256,0.222-1.883,0.097c-2.588-0.515-4.727-2.259-6.839-3.84C220.368,94.341,214.143,89.316,206.639,87.037z"/>
					<path style="fill:#FEB17D;" d="M206.403,85.497c0,0,2.772,23.956,9.899,26.728c7.127,2.772,14.057,0,17.224-3.564
						c3.168-3.564,4.158-18.808,4.158-18.808s-1.98-1.584-3.366-5.742c-0.336-1.007-0.872-2.464-1.478-3.335
						c-0.606-0.871-1.578-1.559-2.639-1.543c-0.474,0.007-0.934,0.152-1.404,0.208c-2.357,0.284-4.743-1.624-6.973-0.809
						c-1.077,0.393-1.844,1.349-2.841,1.914c-1.708,0.968-3.819,0.677-5.765,0.416c-0.842-0.113-1.821-0.17-2.409,0.443
						c-0.452,0.471-0.511,1.181-0.731,1.795C209.602,84.527,207.812,85.497,206.403,85.497z"/>
					<path style="fill:#FE977D;" d="M241.714,88.285c-0.61-1.189-3.191,0.078-3.191,0.078l-0.817,8.142
						C241.384,94.884,242.324,89.473,241.714,88.285z"/>
				</g>
				<g>
					<path style="fill:#BC5F61;" d="M215.165,130.159c0,0,2.167,5.246,4.691,5.939c2.524,0.693,2.569-3.168,2.569-3.168
						s-2.86-2.772-3.63-4.059C218.026,127.585,215.165,130.159,215.165,130.159z"/>
					<path style="fill:#BC5F61;" d="M224.739,134.118c0,0,4.671-3.888,5.561-5.607c0.891-1.719,2.527,0.558,2.527,0.558
						s-0.498,5.197-2.725,6.83C227.875,137.534,224.739,134.118,224.739,134.118z"/>
					<path style="fill:#F85F61;" d="M232.168,165.35c-0.132-11.615-4.752-24.286-4.752-24.286l-5.034-1.254
						c-2.13,6.929-1.962,33.855-1.17,40.982c0.792,7.127,1.584,21.514,1.813,21.997c0.229,0.483,5.974,7.305,6.815,6.909
						c0.841-0.396,3.515-9.767,3.515-9.767C232.3,195.179,232.3,176.965,232.168,165.35z"/>
					<path style="fill:#BC5F61;" d="M221.739,142.938c2.219,0.792,4.502,1.425,6.796,1.565c-0.646-2.14-1.119-3.439-1.119-3.439
						l-5.033-1.254C222.138,140.606,221.925,141.676,221.739,142.938z"/>
					<path style="fill:#F85F61;" d="M226.034,132.347h-2.591c-0.275,0-0.537,0.096-0.743,0.279c-0.918,0.809-3.524,3.111-3.626,3.25
						c-0.117,0.16,2.113,4.691,4.082,6.185c0.184,0.14,0.415,0.199,0.646,0.199h1.872c0.231,0,0.462-0.059,0.646-0.199
						c1.969-1.494,4.199-6.025,4.082-6.185c-0.101-0.138-2.708-2.441-3.626-3.25C226.571,132.443,226.31,132.347,226.034,132.347z"
						/>
					<g>
						<path style="fill:#BC5F61;" d="M222.132,191.54c0.02,0.273,0.04,0.544,0.06,0.815l8.314,5.966
							c0.88,0.632,1.803,1.287,2.761,1.92c0.054-0.186,0.089-0.31,0.089-0.31c-0.03-0.135-0.059-0.285-0.087-0.441
							c-0.827-0.556-1.629-1.127-2.397-1.678L222.132,191.54z"/>
						<path style="fill:#BC5F61;" d="M221.278,147.055c0.764,0.274,1.525,0.563,2.267,0.884c0.446,0.193,0.916,0.405,1.335,0.69
							c0.212,0.144,0.411,0.306,0.611,0.468c0.166,0.135,0.333,0.27,0.507,0.396c0.535,0.39,1.127,0.688,1.7,0.975l2.756,1.388
							c-0.059-0.267-0.118-0.53-0.178-0.791l-2.297-1.157c-0.55-0.277-1.119-0.563-1.613-0.923c-0.165-0.12-0.323-0.248-0.481-0.376
							c-0.213-0.173-0.427-0.345-0.653-0.499c-0.464-0.316-0.965-0.542-1.439-0.747c-0.804-0.348-1.629-0.659-2.458-0.952
							C221.316,146.624,221.296,146.837,221.278,147.055z"/>
						<path style="fill:#BC5F61;" d="M221.898,179.137c1.06,0.435,2.156,0.884,3.085,1.559c0.371,0.269,0.727,0.583,1.07,0.887
							c0.269,0.238,0.539,0.476,0.822,0.7c0.829,0.658,1.752,1.18,2.646,1.686l2.904,1.644c-0.006-0.242-0.011-0.485-0.016-0.73
							l-2.579-1.46c-0.872-0.493-1.774-1.003-2.565-1.631c-0.273-0.217-0.535-0.448-0.796-0.679
							c-0.355-0.313-0.721-0.637-1.117-0.924c-0.991-0.719-2.122-1.184-3.216-1.633l-1.14-0.468c0.015,0.242,0.03,0.471,0.045,0.697
							L221.898,179.137z"/>
						<path style="fill:#BC5F61;" d="M221.996,168.15c-0.205-0.143-0.404-0.295-0.602-0.447c-0.226-0.174-0.472-0.339-0.715-0.504
							c0.002,0.257,0.003,0.516,0.006,0.77c0.108,0.08,0.217,0.146,0.327,0.231c0.206,0.159,0.413,0.317,0.626,0.465
							c0.658,0.458,1.379,0.817,2.091,1.173c2.77,1.379,5.61,2.777,8.52,4.008c-0.002-0.23-0.004-0.458-0.007-0.686
							c-2.808-1.2-5.559-2.551-8.249-3.89C223.317,168.931,222.617,168.582,221.996,168.15z"/>
						<path style="fill:#BC5F61;" d="M224.258,157.926l7.711,3.545c-0.021-0.24-0.042-0.48-0.066-0.72l-7.383-3.395
							c-1.208-0.555-2.445-1.11-3.716-1.584c-0.007,0.219-0.013,0.44-0.019,0.661C221.967,156.885,223.125,157.405,224.258,157.926z
							"/>
					</g>
				</g>
				<g>
					<path style="fill:#8C9CBD;" d="M259.66,218.995c0,0-11.262,3.968-20.282,2.912c-8.08-0.946-29.458,1.057-35.914-1.735l0,0
						c0,0-0.827,4.308,0,5.496s14.884,1.386,21.417,0.99c6.533-0.396,34.987-0.988,34.987-0.988v-0.001L259.66,218.995z"/>
					<g>
						<path style="fill:#717E98;" d="M242.204,222.071v4.011c0.496-0.013,0.991-0.025,1.485-0.038v-3.986
							C243.192,222.073,242.698,222.077,242.204,222.071z"/>
						<path style="fill:#717E98;" d="M254.776,220.406c-0.472,0.117-0.966,0.234-1.485,0.351v5.057
							c0.52-0.012,1.012-0.023,1.485-0.034V220.406z"/>
						<path style="fill:#717E98;" d="M209.141,226.623c0.478,0.029,0.974,0.055,1.485,0.078v-5.217
							c-0.512-0.037-1.003-0.082-1.485-0.13V226.623z"/>
						<path style="fill:#717E98;" d="M220.228,226.82c0.508-0.008,1.004-0.019,1.485-0.032v-5.063
							c-0.496,0.003-0.991,0.006-1.485,0.007V226.82z"/>
					</g>
				</g>
				<g>
					<path style="fill:#717E98;" d="M204.899,226.182c0,0-3.776,8.593-3.38,18.69c0.396,10.097,7.589,134.1,8.315,147.298
						c0.726,13.199,3.366,36.859,3.366,36.859h13.727c0,0-0.392-164.623,4.555-165.679c4.948-1.056,4.948,6.863,5.476,11.087
						c0.528,4.224,22.802,154.592,22.802,154.592h11.515c0,0-5.606-81.666-3.168-101.424c1.602-12.983-3.791-88.699-8.239-101.938"
						/>
					<g>
						
							<rect x="217.344" y="364.88" transform="matrix(0.99 -0.1412 0.1412 0.99 -49.3518 34.5734)" style="fill:#3C333A;" width="3.192" height="0.314"/>
						<path style="fill:#3C333A;" d="M215.164,292.561c-3.686,0.26-7.383,0.136-11.043-0.326c0.006,0.108,0.012,0.216,0.018,0.324
							c2.334,0.292,4.682,0.457,7.034,0.457c1.337,0,2.676-0.048,4.012-0.142L215.164,292.561z"/>
						<path style="fill:#3C333A;" d="M231.621,242.652l-0.312,0.025c0.337,4.275,1.217,8.565,2.067,12.715
							c0.65,3.17,1.304,6.398,1.728,9.649c0.154,0.266,0.295,0.55,0.419,0.857c-0.415-3.565-1.129-7.102-1.84-10.57
							C232.835,251.188,231.958,246.907,231.621,242.652z"/>
						<path style="fill:#3C333A;" d="M208.23,364.053l4.558,0.388l0.027-0.313l-4.603-0.392
							C208.218,363.841,208.224,363.947,208.23,364.053z"/>
						<path style="fill:#3C333A;" d="M230.349,235.132l-0.299,0.096c0.525,1.656,0.884,3.372,1.067,5.101l0.312-0.032
							C231.244,238.546,230.881,236.809,230.349,235.132z"/>
						<path style="fill:#3C333A;" d="M267.766,325.715c0.213-0.381,0.392-0.78,0.558-1.183c0.011-0.299,0.021-0.611,0.03-0.933
							c-0.252,0.663-0.515,1.341-0.862,1.964c-0.869,1.556-2.299,2.886-4.251,3.953c-1.743,0.951-3.664,1.572-5.521,2.172
							l0.097,0.299c1.87-0.605,3.805-1.231,5.574-2.197C265.396,328.695,266.868,327.325,267.766,325.715z"/>
						
							<rect x="251.592" y="332.397" transform="matrix(0.9931 -0.1172 0.1172 0.9931 -37.2297 31.9405)" style="fill:#3C333A;" width="2.799" height="0.313"/>
						<rect x="219.931" y="293.418" style="fill:#3C333A;" width="4.356" height="0.313"/>
					</g>
				</g>
				<g>
					<path style="fill:#F5FAFF;" d="M208.854,124.631c0.528-2.904,6.778-4.679,6.778-4.679s1.339,7.186,6.851,10.222
						c0,0-4.949-0.528-6.979,3.102C215.504,133.277,210.57,128.921,208.854,124.631z"/>
					<path style="fill:#F5FAFF;" d="M239.07,124.631c-0.528-2.904-6.778-4.679-6.778-4.679s-1.339,7.186-6.851,10.222
						c0,0,4.949-0.528,6.979,3.102C232.42,133.277,237.354,128.921,239.07,124.631z"/>
				</g>
			</g>
		</g>
		<g>
			<g>
				<path style="fill:#C3CBE5;" d="M136.011,207.66v-6.518h-6.18c-0.164-0.873-0.399-1.719-0.687-2.542l5.358-3.093l-3.259-5.645
					l-5.356,3.093c-0.574-0.666-1.195-1.288-1.861-1.862l3.092-5.356l-5.645-3.259l-3.093,5.357
					c-0.823-0.288-1.669-0.523-2.542-0.687v-6.18h-6.518v6.18c-0.873,0.164-1.719,0.399-2.542,0.687l-3.093-5.357l-5.645,3.259
					l3.092,5.356c-0.666,0.574-1.288,1.195-1.862,1.862l-5.356-3.093l-3.259,5.645l5.358,3.093
					c-0.288,0.823-0.523,1.669-0.687,2.542h-6.18v6.518h6.18c0.164,0.874,0.399,1.72,0.687,2.542l-5.357,3.093l3.259,5.645
					l5.356-3.093c0.573,0.666,1.195,1.288,1.862,1.862l-3.092,5.356l5.645,3.259l3.093-5.358c0.823,0.288,1.669,0.523,2.542,0.687
					v6.18h6.518v-6.18c0.874-0.164,1.72-0.399,2.542-0.687l3.093,5.358l5.645-3.259l-3.092-5.356
					c0.666-0.574,1.288-1.195,1.861-1.862l5.356,3.093l3.259-5.645l-5.357-3.093c0.288-0.823,0.523-1.669,0.687-2.542H136.011z
					 M112.577,213.869c-5.229,0-9.468-4.239-9.468-9.468c0-5.229,4.239-9.468,9.468-9.468c5.229,0,9.468,4.239,9.468,9.468
					C122.045,209.63,117.806,213.869,112.577,213.869z"/>
				<path style="fill:#C3CBE5;" d="M150.793,246.358v-4.277h-4.056c-0.108-0.573-0.262-1.128-0.451-1.668l3.516-2.03l-2.139-3.704
					l-3.515,2.029c-0.376-0.437-0.784-0.845-1.222-1.222l2.029-3.515l-3.704-2.139l-2.03,3.516c-0.54-0.189-1.095-0.343-1.668-0.451
					v-4.056h-4.277v4.056c-0.573,0.108-1.128,0.262-1.668,0.451l-2.03-3.516l-3.704,2.139l2.029,3.515
					c-0.437,0.376-0.845,0.785-1.222,1.222l-3.515-2.029l-2.139,3.704l3.516,2.03c-0.189,0.54-0.343,1.095-0.451,1.668h-4.056v4.277
					h4.056c0.108,0.573,0.262,1.129,0.451,1.668l-3.516,2.03l2.139,3.704l3.515-2.03c0.376,0.437,0.785,0.845,1.222,1.222
					l-2.029,3.515l3.704,2.139l2.03-3.516c0.54,0.189,1.095,0.343,1.668,0.451v4.056h4.277v-4.056
					c0.573-0.108,1.129-0.262,1.668-0.451l2.03,3.516l3.704-2.139l-2.029-3.515c0.437-0.376,0.845-0.785,1.222-1.222l3.515,2.03
					l2.139-3.704l-3.516-2.03c0.189-0.54,0.343-1.095,0.451-1.668H150.793z M135.415,250.433c-3.432,0-6.213-2.782-6.213-6.213
					c0-3.432,2.782-6.213,6.213-6.213c3.432,0,6.213,2.782,6.213,6.213C141.628,247.651,138.846,250.433,135.415,250.433z"/>
			</g>
			<polygon style="fill:#C3CBE5;" points="460.516,301.005 444.352,304.329 449.865,309.351 439.686,320.825 424.496,309.042 
				411.891,340.446 402.055,331.87 398.946,335.435 413.801,348.388 426.55,316.623 440.285,327.277 453.363,312.538 
				459.204,317.859 			"/>
			<g>
				<rect x="592.61" y="182.076" style="fill:#C3CBE5;" width="8.959" height="28.743"/>
				<rect x="607.806" y="182.076" style="fill:#C3CBE5;" width="8.959" height="28.743"/>
				<rect x="607.806" y="170.907" style="fill:#C3CBE5;" width="8.959" height="39.911"/>
				<rect x="623.002" y="178.432" style="fill:#C3CBE5;" width="8.959" height="32.386"/>
				<rect x="638.198" y="167.603" style="fill:#C3CBE5;" width="8.959" height="43.215"/>
				<g>
					<rect x="586.951" y="214.141" style="fill:#C3CBE5;" width="66.017" height="1.794"/>
					<polygon style="fill:#C3CBE5;" points="652.968,218.81 652.968,211.265 658.273,215.038 					"/>
				</g>
			</g>
			<g>
				<polygon style="fill:#C3CBE5;" points="132.077,377.773 165.712,377.773 176.334,387.268 176.334,352.044 132.077,352.044 				
					"/>
				<polygon style="fill:#D8DBF3;" points="147.366,361.841 113.731,361.841 103.109,371.336 103.109,336.112 147.366,336.112 				
					"/>
			</g>
			<g>
				<path style="fill:#D8DBF3;" d="M613.396,325.699c6.77,9.135,4.852,22.029-4.283,28.798c-9.135,6.769-22.029,4.852-28.798-4.284
					c-6.77-9.135-4.852-22.029,4.283-28.798C593.733,314.646,606.626,316.564,613.396,325.699z"/>
				<path style="fill:#FFFFFF;" d="M606.432,330.859c3.92,5.289,2.809,12.755-2.48,16.674c-5.289,3.919-12.755,2.809-16.674-2.48
					c-3.92-5.289-2.809-12.755,2.48-16.674C595.047,324.459,602.512,325.57,606.432,330.859z"/>
				<path style="fill:#C3CBE5;" d="M609.112,354.497c-1.313,0.973-2.708,1.745-4.147,2.363l13.475,18.185
					c1.558,2.103,4.526,2.544,6.629,0.986l0,0c2.103-1.558,2.544-4.526,0.986-6.629l-13.476-18.185
					C611.57,352.414,610.425,353.524,609.112,354.497z"/>
			</g>
			<g>
				<path style="fill:#C3CBE5;" d="M302.655,75.837c0-9.851-8.222-17.783-18.178-17.306c-8.915,0.427-16.189,7.832-16.467,16.752
					c-0.17,5.432,2.162,10.322,5.93,13.609c2.912,2.541,4.717,6.114,4.717,9.978v4.552h13.342v-4.55c0-3.87,1.816-7.442,4.73-9.99
					C300.361,85.706,302.655,81.04,302.655,75.837z"/>
				<rect x="279.611" y="106.182" style="fill:#C3CBE5;" width="11.436" height="2.927"/>
				<rect x="282.615" y="110.984" style="fill:#C3CBE5;" width="5.368" height="1.895"/>
				<polygon style="fill:#FFFFFF;" points="284.359,85.623 277.55,78.813 278.964,77.399 284.155,82.59 294.129,69.5 295.72,70.712 
									"/>
				<rect x="283.51" y="48.547" style="fill:#C3CBE5;" width="3.081" height="7.749"/>
				<g>
					
						<rect x="264.554" y="57.541" transform="matrix(0.6331 -0.7741 0.7741 0.6331 50.0985 228.5203)" style="fill:#C3CBE5;" width="3.081" height="7.749"/>
					
						<rect x="303.023" y="57.541" transform="matrix(-0.6331 -0.7741 0.7741 -0.6331 449.827 336.0591)" style="fill:#C3CBE5;" width="3.081" height="7.749"/>
				</g>
			</g>
			<g>
				<rect x="418.765" y="81.735" style="fill:#C3CBE5;" width="44.376" height="23.599"/>
				<polygon style="fill:#D8DBF3;" points="418.765,81.735 440.953,93.534 463.141,81.735 				"/>
			</g>
			<path style="fill:#C3CBE5;" d="M315.821,290.562h-29.789c-1.104,0-1.999,0.895-1.999,1.999v16.434
				c0,1.104,0.895,1.999,1.999,1.999h6.793l0.523,6.2c0.068,0.802,1.103,1.077,1.56,0.414l4.56-6.614h16.352
				c1.104,0,1.999-0.895,1.999-1.999v-16.434C317.82,291.457,316.925,290.562,315.821,290.562z M288.611,302.983
				c-1.163,0-2.105-0.943-2.105-2.105c0-1.163,0.943-2.105,2.105-2.105c1.163,0,2.105,0.943,2.105,2.105
				C290.716,302.041,289.773,302.983,288.611,302.983z M296.821,302.983c-1.163,0-2.105-0.943-2.105-2.105
				c0-1.163,0.943-2.105,2.105-2.105c1.163,0,2.105,0.943,2.105,2.105C298.926,302.041,297.984,302.983,296.821,302.983z
				 M305.032,302.983c-1.163,0-2.105-0.943-2.105-2.105c0-1.163,0.943-2.105,2.105-2.105c1.163,0,2.105,0.943,2.105,2.105
				C307.137,302.041,306.194,302.983,305.032,302.983z M313.242,302.983c-1.163,0-2.105-0.943-2.105-2.105
				c0-1.163,0.943-2.105,2.105-2.105c1.163,0,2.105,0.943,2.105,2.105C315.347,302.041,314.405,302.983,313.242,302.983z"/>
		</g>
	</g>
</g>
</svg>
